<?xml version="1.0" encoding="UTF-8"?>
<svg width="72px" height="32px" viewBox="0 0 72 32" version="1.1" xmlns="http://www.w3.org/2000/svg" xmlns:xlink="http://www.w3.org/1999/xlink">
    <!-- Generator: Sketch 48.2 (47327) - http://www.bohemiancoding.com/sketch -->
    <title>logo_white</title>
    <desc>Created with Sketch.</desc>
    <defs></defs>
    <g id="Symbols" stroke="none" stroke-width="1" fill="none" fill-rule="evenodd">
        <g id="logo_white" fill="#FFFFFF" fill-rule="nonzero">
            <path d="M64,5.71428571 L67.4285714,5.71428571 L67.4285714,23.4292857 L67.4285714,26.2857143 L67.4285714,28 L65.7657143,26.2857143 L64,24.4664286 L52,12.1042857 L52,26.2857143 L48.5714286,26.2857143 L48.5714286,8.57071429 L48.5714286,5.71428571 L48.5714286,4 L50.2342857,5.71428571 L52,7.53357143 L64,19.8957143 L64,5.71428571 Z M35.7142857,4 L37.4285714,8.05214286 L45.1428571,26.2857143 L41.7142857,26.2857143 L35.7142857,12.1042857 L29.7142857,26.2857143 L26.2857143,26.2857143 L34,8.05214286 L35.7142857,4 Z M14.2857143,9.14285714 C10.5057143,9.14285714 7.42857143,12.22 7.42857143,16 C7.42857143,19.78 10.5057143,22.8571429 14.2857143,22.8571429 L21.9507143,22.8571429 L24.3078571,22.8571429 L22.8571429,26.2857143 L14.2857143,26.2857143 C8.605,26.2857143 4,21.6807143 4,16 C4,10.3192857 8.605,5.71428571 14.2857143,5.71428571 L24.3078571,5.71428571 L22.8571429,9.14285714 L21.9507143,9.14285714 L14.2857143,9.14285714 Z" id="Combined-Shape"></path>
        </g>
    </g>
</svg>